<svg width="20" height="20" viewBox="0 0 20 20" fill="none" xmlns="http://www.w3.org/2000/svg">
<g clip-path="url(#clip0_138_150)">
<path d="M19.1663 9.16591H17.4996V7.49923C17.4996 7.039 17.1266 6.66592 16.6663 6.66592C16.2061 6.66592 15.833 7.039 15.833 7.49923V9.16591H14.1663C13.7061 9.16591 13.333 9.539 13.333 9.99923C13.333 10.4595 13.7061 10.8325 14.1663 10.8325H15.833V12.4992C15.833 12.9595 16.2061 13.3325 16.6663 13.3325C17.1266 13.3325 17.4996 12.9595 17.4996 12.4992V10.8325H19.1663C19.6266 10.8325 19.9996 10.4595 19.9996 9.99923C19.9996 9.539 19.6266 9.16591 19.1663 9.16591Z" fill="#9096AA"/>
<path d="M7.5 10C10.2614 10 12.5 7.76142 12.5 5C12.5 2.23858 10.2614 0 7.5 0C4.73858 0 2.5 2.23858 2.5 5C2.5 7.76142 4.73858 10 7.5 10Z" fill="#9096AA"/>
<path d="M7.5 11.6659C3.35977 11.6705 0.00460937 15.0257 0 19.1659C0 19.6261 0.373086 19.9992 0.83332 19.9992H14.1666C14.6269 19.9992 15 19.6261 15 19.1659C14.9954 15.0257 11.6402 11.6705 7.5 11.6659Z" fill="#9096AA"/>
</g>
<defs>
<clipPath id="clip0_138_150">
<rect width="20" height="20" fill="white"/>
</clipPath>
</defs>
</svg>
