<svg width="24" height="24" viewBox="0 0 24 24" fill="none" xmlns="http://www.w3.org/2000/svg">
<g clip-path="url(#clip0_15_314)">
<path d="M7.42383 21C7.81149 21.8914 8.45106 22.6502 9.26398 23.1831C10.0769 23.716 11.0278 23.9999 11.9998 23.9999C12.9719 23.9999 13.9228 23.716 14.7357 23.1831C15.5486 22.6502 16.1882 21.8914 16.5758 21H7.42383Z" fill="#9096AA"/>
<path d="M22.3918 12.549L20.6558 6.82601C20.0999 4.82435 18.8912 3.06578 17.2217 1.82951C15.5522 0.593237 13.5175 -0.0498743 11.4407 0.00228606C9.36396 0.0544465 7.36413 0.798889 5.75878 2.11741C4.15342 3.43594 3.03455 5.25297 2.57981 7.28001L1.23181 12.817C1.05264 13.5528 1.04293 14.3196 1.20342 15.0597C1.3639 15.7997 1.69039 16.4936 2.15823 17.0891C2.62607 17.6845 3.22306 18.1659 3.90412 18.497C4.58519 18.828 5.33255 19 6.08981 19H17.6068C18.3875 19 19.1574 18.8172 19.8548 18.4662C20.5522 18.1152 21.1577 17.6058 21.6228 16.9788C22.088 16.3517 22.3998 15.6244 22.5333 14.8552C22.6668 14.086 22.6184 13.2961 22.3918 12.549Z" fill="#9096AA"/>
</g>
<defs>
<clipPath id="clip0_15_314">
<rect width="24" height="24" fill="white"/>
</clipPath>
</defs>
</svg>
