<svg width="20" height="20" viewBox="0 0 20 20" fill="none" xmlns="http://www.w3.org/2000/svg">
<g clip-path="url(#clip0_15_383)">
<path d="M5.18679 7.23744L3.45846 7.74411C2.89683 7.90897 2.3759 8.18949 1.92913 8.56766C1.48237 8.94582 1.11965 9.41326 0.864289 9.93994C0.613127 10.4595 0.473237 11.0257 0.453578 11.6025C0.433918 12.1792 0.534922 12.7537 0.750122 13.2891C0.755955 13.3041 0.763455 13.3183 0.769289 13.3333L2.20262 13.0991C3.55358 12.7472 4.78895 12.048 5.78596 11.0708C5.8642 10.9942 5.95677 10.9337 6.05837 10.8929C6.15998 10.8521 6.26863 10.8316 6.37813 10.8328C6.48762 10.834 6.59582 10.8567 6.69654 10.8997C6.79725 10.9426 6.88852 11.005 6.96512 11.0833C7.04173 11.1615 7.10217 11.2541 7.143 11.3557C7.18383 11.4573 7.20425 11.5659 7.20309 11.6754C7.20192 11.7849 7.17921 11.8931 7.13623 11.9939C7.09326 12.0946 7.03087 12.1858 6.95262 12.2624C5.72554 13.4602 4.20307 14.3116 2.54012 14.7299L1.56346 14.8916C2.12543 15.8049 2.82219 16.6281 3.63012 17.3333L5.34096 16.6983L6.50762 16.1149C7.71033 15.5105 8.73998 14.6108 9.50012 13.4999L9.93262 12.8658C9.99279 12.7721 10.0711 12.6914 10.163 12.6284C10.2549 12.5655 10.3585 12.5217 10.4676 12.4994C10.5767 12.4772 10.6892 12.4771 10.7983 12.4991C10.9075 12.5211 11.0112 12.5647 11.1032 12.6274C11.1952 12.6901 11.2737 12.7707 11.3341 12.8643C11.3945 12.9578 11.4355 13.0626 11.4547 13.1722C11.4739 13.2819 11.4709 13.3944 11.446 13.5029C11.421 13.6114 11.3745 13.7138 11.3093 13.8041L10.8776 14.4383C9.95809 15.7838 8.71154 16.8735 7.25512 17.6049L5.96346 18.2491L5.26096 18.5091C6.95398 19.4961 8.87956 20.0139 10.8393 20.0091H11.6093C11.7816 20.009 11.9497 19.9561 12.091 19.8574C13.8558 18.6579 15.3174 17.0643 16.3601 15.2024L7.28346 6.29077C6.62116 6.6818 5.91809 6.99924 5.18679 7.23744Z" fill="#9096AA"/>
<path d="M19.7629 1.90416C19.6047 1.74651 19.3905 1.65799 19.1671 1.65799C18.9437 1.65799 18.7295 1.74651 18.5713 1.90416L14.6012 5.87416L14.3346 5.61333C13.6315 4.92662 12.7087 4.51007 11.7286 4.43705C10.7485 4.36402 9.77413 4.63922 8.97707 5.21416C8.9004 5.26916 8.82457 5.31499 8.74707 5.36833L17.1029 13.5717C17.3688 12.8517 17.5642 12.1077 17.6863 11.35C17.7896 10.6899 17.7336 10.0147 17.523 9.38061C17.3124 8.74655 16.9532 8.17204 16.4754 7.70499L15.8088 7.05166L19.7646 3.09583C19.922 2.93738 20.0102 2.72301 20.0099 2.49965C20.0096 2.27629 19.9208 2.06216 19.7629 1.90416Z" fill="#9096AA"/>
</g>
<defs>
<clipPath id="clip0_15_383">
<rect width="20" height="20" fill="white"/>
</clipPath>
</defs>
</svg>
