<svg width="20" height="20" viewBox="0 0 20 20" fill="none" xmlns="http://www.w3.org/2000/svg">
<g clip-path="url(#clip0_134_166)">
<path d="M11.1782 9.99995L19.7557 1.42245C19.9075 1.26528 19.9915 1.05478 19.9896 0.836285C19.9877 0.617788 19.9 0.408777 19.7455 0.254271C19.591 0.0997638 19.382 0.0121231 19.1635 0.0102244C18.945 0.00832569 18.7345 0.092321 18.5773 0.244119L9.99982 8.82162L1.42232 0.244119C1.26515 0.092321 1.05465 0.00832569 0.836154 0.0102244C0.617657 0.0121231 0.408647 0.0997638 0.25414 0.254271C0.0996331 0.408777 0.0119924 0.617788 0.0100937 0.836285C0.00819499 1.05478 0.0921903 1.26528 0.243989 1.42245L8.82149 9.99995L0.243989 18.5775C0.0877629 18.7337 0 18.9456 0 19.1666C0 19.3876 0.0877629 19.5995 0.243989 19.7558V19.7558C0.400262 19.912 0.612185 19.9998 0.833155 19.9998C1.05413 19.9998 1.26605 19.912 1.42232 19.7558L9.99982 11.1783L18.5773 19.7558C18.7336 19.912 18.9455 19.9998 19.1665 19.9998C19.3875 19.9998 19.5994 19.912 19.7557 19.7558C19.9119 19.5995 19.9996 19.3876 19.9996 19.1666C19.9996 18.9456 19.9119 18.7337 19.7557 18.5775L11.1782 9.99995Z" fill="#9096AA"/>
</g>
<defs>
<clipPath id="clip0_134_166">
<rect width="20" height="20" fill="white"/>
</clipPath>
</defs>
</svg>
