<svg width="20" height="20" viewBox="0 0 20 20" fill="none" xmlns="http://www.w3.org/2000/svg">
<path d="M10 13.3321C11.8403 13.3321 13.3321 11.8402 13.3321 9.99999C13.3321 8.15973 11.8403 6.66791 10 6.66791C8.15979 6.66791 6.66797 8.15973 6.66797 9.99999C6.66797 11.8402 8.15979 13.3321 10 13.3321Z" fill="#9096AA"/>
<path d="M19.389 7.8501C18.097 5.74588 15.1581 2.21552 9.99998 2.21552C4.8419 2.21552 1.90299 5.74588 0.610965 7.8501C-0.203655 9.1677 -0.203655 10.8326 0.610965 12.1502C1.90299 14.2544 4.8419 17.7848 9.99998 17.7848C15.1581 17.7848 18.097 14.2544 19.389 12.1502C20.2036 10.8326 20.2036 9.1677 19.389 7.8501ZM9.99998 14.9983C7.2396 14.9983 5.00184 12.7605 5.00184 10.0001C5.00184 7.23974 7.2396 5.00198 9.99998 5.00198C12.7604 5.00198 14.9981 7.23974 14.9981 10.0001C14.9954 12.7594 12.7592 14.9955 9.99998 14.9983Z" fill="#9096AA"/>
</svg>
