<svg width="20" height="20" viewBox="0 0 20 20" fill="none" xmlns="http://www.w3.org/2000/svg">
<g clip-path="url(#clip0_10_56)">
<path d="M12.3013 9.65575C11.8458 9.91508 11.3492 10.0943 10.833 10.1857V19.8949C11.2722 19.8094 11.6944 19.6526 12.083 19.4307L17.1055 16.5316C17.7381 16.1648 18.2634 15.6385 18.629 15.0051C18.9946 14.3718 19.1876 13.6537 19.1888 12.9224V7.12241C19.1862 6.67725 19.1116 6.23545 18.968 5.81408L12.3013 9.65575Z" fill="#636878"/>
<path d="M8.53488 8.21409C8.9812 8.47081 9.48707 8.60591 10.002 8.60591C10.5168 8.60591 11.0227 8.47081 11.469 8.21409L18.1357 4.37243C17.8404 4.03316 17.492 3.74412 17.104 3.51659L12.0832 0.614094C11.4494 0.249611 10.731 0.0577927 9.99988 0.0577927C9.26873 0.0577927 8.55037 0.249611 7.91654 0.614094L2.89404 3.51409C2.51992 3.73317 2.18248 4.00959 1.89404 4.33326L8.53488 8.21409Z" fill="#636878"/>
<path d="M9.16687 10.186C8.6504 10.0948 8.15345 9.91554 7.6977 9.65601L1.0477 5.76935C0.893807 6.20408 0.813812 6.66152 0.811035 7.12268V12.9227C0.812254 13.6539 1.00529 14.3721 1.37086 15.0054C1.73643 15.6387 2.26175 16.1651 2.89437 16.5318L7.91687 19.431C8.30543 19.6529 8.72767 19.8097 9.16687 19.8952V10.186Z" fill="#636878"/>
</g>
<defs>
<clipPath id="clip0_10_56">
<rect width="20" height="20" fill="white"/>
</clipPath>
</defs>
</svg>
