<svg width="20" height="20" viewBox="0 0 20 20" fill="none" xmlns="http://www.w3.org/2000/svg">
<g clip-path="url(#clip0_134_143)">
<path d="M19.0258 7.64256L15.7933 4.41006C15.4623 4.09034 14.9347 4.09952 14.615 4.43057C14.3031 4.7535 14.3031 5.26549 14.615 5.58842L17.8475 8.82092C17.9436 8.91885 18.0275 9.02799 18.0975 9.14592C18.085 9.14592 18.075 9.13924 18.0625 9.13924L4.9925 9.16592C4.53227 9.16592 4.15918 9.53901 4.15918 9.99924C4.15918 10.4595 4.53227 10.8326 4.9925 10.8326L18.0575 10.8059C18.0808 10.8059 18.1 10.7942 18.1225 10.7926C18.0486 10.9335 17.9548 11.0632 17.8442 11.1776L14.6117 14.4101C14.2806 14.7298 14.2714 15.2573 14.5912 15.5884C14.9109 15.9194 15.4384 15.9286 15.7695 15.6089C15.7764 15.6022 15.7833 15.5953 15.79 15.5884L19.0225 12.3559C20.3238 11.0542 20.3238 8.9442 19.0225 7.64256H19.0258Z" fill="#9096AA"/>
<path d="M5.83527 18.3333H4.16859C2.78789 18.3333 1.66859 17.214 1.66859 15.8333V4.16668C1.66859 2.78598 2.78789 1.66668 4.16859 1.66668H5.83527C6.29551 1.66668 6.66859 1.29359 6.66859 0.833359C6.66859 0.373125 6.29555 0 5.83527 0H4.16859C1.86859 0.00277344 0.00472656 1.86664 0.00195312 4.16668V15.8334C0.00472656 18.1334 1.86859 19.9973 4.16863 20H5.83531C6.29555 20 6.66863 19.6269 6.66863 19.1667C6.66863 18.7064 6.29555 18.3333 5.83527 18.3333Z" fill="#9096AA"/>
</g>
<defs>
<clipPath id="clip0_134_143">
<rect width="20" height="20" fill="white"/>
</clipPath>
</defs>
</svg>
