<svg width="20" height="20" viewBox="0 0 20 20" fill="none" xmlns="http://www.w3.org/2000/svg">
<g clip-path="url(#clip0_10_33)">
<path d="M11.667 5.83333V0.383326C12.4379 0.674438 13.1381 1.12609 13.7212 1.70833L16.6245 4.61333C17.2074 5.19573 17.6594 5.89574 17.9503 6.66666H12.5003C12.2793 6.66666 12.0674 6.57886 11.9111 6.42258C11.7548 6.2663 11.667 6.05434 11.667 5.83333ZM18.3337 8.73749V15.8333C18.3323 16.938 17.8929 17.997 17.1118 18.7781C16.3307 19.5593 15.2717 19.9987 14.167 20H5.83366C4.729 19.9987 3.66996 19.5593 2.88884 18.7781C2.10773 17.997 1.66832 16.938 1.66699 15.8333V4.16666C1.66832 3.062 2.10773 2.00296 2.88884 1.22184C3.66996 0.440727 4.729 0.00131559 5.83366 -7.62939e-06L9.59616 -7.62939e-06C9.73199 -7.62939e-06 9.86616 0.0108257 10.0003 0.0199924V5.83333C10.0003 6.49637 10.2637 7.13225 10.7326 7.60109C11.2014 8.06993 11.8373 8.33333 12.5003 8.33333H18.3137C18.3228 8.46749 18.3337 8.60166 18.3337 8.73749ZM11.667 15.8333C11.667 15.6123 11.5792 15.4003 11.4229 15.2441C11.2666 15.0878 11.0547 15 10.8337 15H6.66699C6.44598 15 6.23402 15.0878 6.07774 15.2441C5.92146 15.4003 5.83366 15.6123 5.83366 15.8333C5.83366 16.0543 5.92146 16.2663 6.07774 16.4226C6.23402 16.5789 6.44598 16.6667 6.66699 16.6667H10.8337C11.0547 16.6667 11.2666 16.5789 11.4229 16.4226C11.5792 16.2663 11.667 16.0543 11.667 15.8333ZM14.167 12.5C14.167 12.279 14.0792 12.067 13.9229 11.9107C13.7666 11.7545 13.5547 11.6667 13.3337 11.6667H6.66699C6.44598 11.6667 6.23402 11.7545 6.07774 11.9107C5.92146 12.067 5.83366 12.279 5.83366 12.5C5.83366 12.721 5.92146 12.933 6.07774 13.0892C6.23402 13.2455 6.44598 13.3333 6.66699 13.3333H13.3337C13.5547 13.3333 13.7666 13.2455 13.9229 13.0892C14.0792 12.933 14.167 12.721 14.167 12.5Z" fill="#636878"/>
</g>
<defs>
<clipPath id="clip0_10_33">
<rect width="20" height="20" fill="white"/>
</clipPath>
</defs>
</svg>
