<svg width="20" height="20" viewBox="0 0 20 20" fill="none" xmlns="http://www.w3.org/2000/svg">
<g clip-path="url(#clip0_134_152)">
<path d="M9.99974 1.66694C12.2325 1.67428 14.3695 2.57445 15.9346 4.16686H13.333C12.8727 4.16686 12.4997 4.53994 12.4997 5.00016C12.4997 5.46038 12.8727 5.83345 13.333 5.83345H16.7853C17.6398 5.83298 18.3323 5.14042 18.3328 4.286V0.833606C18.3328 0.373386 17.9597 0.000311989 17.4995 0.000311989C17.0393 0.000311989 16.6662 0.373386 16.6662 0.833606V2.56523C12.569 -1.12477 6.25614 -0.794624 2.56614 3.30263C1.12209 4.9061 0.236372 6.93428 0.0417294 9.08335C-0.00108177 9.54482 0.338322 9.9536 0.799792 9.99641C0.824791 9.99871 0.849907 9.99992 0.875063 10C1.29743 10.0054 1.65449 9.68841 1.69922 9.26834C2.08366 4.9691 5.68335 1.6726 9.99974 1.66694Z" fill="#9096AA"/>
<path d="M19.1256 10.0001C18.7032 9.99474 18.3462 10.3117 18.3014 10.7318C17.9038 15.3103 13.8698 18.6996 9.29121 18.3019C7.31021 18.1298 5.45633 17.2541 4.06524 15.8333H6.66684C7.12706 15.8333 7.50013 15.4602 7.50013 15C7.50013 14.5398 7.12706 14.1667 6.66684 14.1667H3.21444C2.36025 14.1662 1.66746 14.8583 1.66699 15.7125C1.66699 15.713 1.66699 15.7135 1.66699 15.7141V19.1665C1.66699 19.6267 2.04007 19.9998 2.50029 19.9998C2.96051 19.9998 3.33358 19.6267 3.33358 19.1665V17.4349C7.43084 21.1249 13.7436 20.7948 17.4336 16.6975C18.8777 15.094 19.7634 13.0659 19.9581 10.9167C20.0009 10.4553 19.6615 10.0465 19.2 10.0037C19.1753 10.0014 19.1504 10.0002 19.1256 10.0001Z" fill="#9096AA"/>
</g>
<defs>
<clipPath id="clip0_134_152">
<rect width="20" height="20" fill="white"/>
</clipPath>
</defs>
</svg>
