<svg width="20" height="20" viewBox="0 0 20 20" fill="none" xmlns="http://www.w3.org/2000/svg">
<g clip-path="url(#clip0_15_416)">
<path d="M19.1667 5.83297H15.1592L15.8258 0.945473C15.8406 0.837023 15.8339 0.726725 15.806 0.620876C15.7782 0.515028 15.7297 0.415702 15.6635 0.32857C15.5973 0.241437 15.5145 0.168205 15.42 0.113054C15.3254 0.0579028 15.221 0.0219129 15.1125 0.00713924C15.0041 -0.00763447 14.8938 -0.00090271 14.7879 0.0269502C14.6821 0.0548031 14.5827 0.103232 14.4956 0.169471C14.4085 0.23571 14.3352 0.318462 14.2801 0.413003C14.2249 0.507544 14.1889 0.612023 14.1742 0.720473L13.4775 5.83297H7.65917L8.32583 0.945473C8.34061 0.837023 8.33387 0.726725 8.30602 0.620876C8.27817 0.515028 8.22974 0.415702 8.1635 0.32857C8.09726 0.241437 8.01451 0.168205 7.91997 0.113054C7.82543 0.0579028 7.72095 0.021913 7.6125 0.00713926C7.50405 -0.00763445 7.39375 -0.000902689 7.2879 0.0269502C7.18205 0.0548031 7.08273 0.103232 6.9956 0.169471C6.90846 0.23571 6.83523 0.318462 6.78008 0.413003C6.72493 0.507544 6.68894 0.612023 6.67417 0.720473L5.9775 5.83297H1.66667C1.44565 5.83297 1.23369 5.92077 1.07741 6.07705C0.921131 6.23333 0.833333 6.44529 0.833333 6.66631C0.833333 6.88732 0.921131 7.09928 1.07741 7.25556C1.23369 7.41184 1.44565 7.49964 1.66667 7.49964H5.75L5.06833 12.4996H0.833333C0.61232 12.4996 0.400358 12.5874 0.244078 12.7437C0.0877974 12.9 0 13.112 0 13.333C0 13.554 0.0877974 13.7659 0.244078 13.9222C0.400358 14.0785 0.61232 14.1663 0.833333 14.1663H4.84083L4.17417 19.0538C4.14433 19.2728 4.20272 19.4947 4.3365 19.6707C4.47027 19.8467 4.66848 19.9623 4.8875 19.9921C5.10652 20.022 5.32843 19.9636 5.5044 19.8298C5.68037 19.696 5.796 19.4978 5.82583 19.2788L6.5225 14.1663H12.3408L11.6742 19.0538C11.6443 19.2728 11.7027 19.4947 11.8365 19.6707C11.9703 19.8467 12.1685 19.9623 12.3875 19.9921C12.6065 20.022 12.8284 19.9636 13.0044 19.8298C13.1804 19.696 13.296 19.4978 13.3258 19.2788L14.0225 14.1663H18.3333C18.5543 14.1663 18.7663 14.0785 18.9226 13.9222C19.0789 13.7659 19.1667 13.554 19.1667 13.333C19.1667 13.112 19.0789 12.9 18.9226 12.7437C18.7663 12.5874 18.5543 12.4996 18.3333 12.4996H14.25L14.9317 7.49964H19.1667C19.3877 7.49964 19.5996 7.41184 19.7559 7.25556C19.9122 7.09928 20 6.88732 20 6.66631C20 6.44529 19.9122 6.23333 19.7559 6.07705C19.5996 5.92077 19.3877 5.83297 19.1667 5.83297ZM12.5683 12.4996H6.75L7.43167 7.49964H13.25L12.5683 12.4996Z" fill="#636878"/>
</g>
<defs>
<clipPath id="clip0_15_416">
<rect width="20" height="20" fill="white"/>
</clipPath>
</defs>
</svg>
