<svg width="20" height="20" viewBox="0 0 20 20" fill="none" xmlns="http://www.w3.org/2000/svg">
<g clip-path="url(#clip0_15_369)">
<path d="M15 15.8333V19.75C15.5882 19.5483 16.1233 19.2168 16.5658 18.78L18.7792 16.565C19.2165 16.1231 19.5483 15.5881 19.75 15H15.8333C15.6123 15 15.4004 15.0878 15.2441 15.2441C15.0878 15.4004 15 15.6123 15 15.8333Z" fill="#9096AA"/>
<path d="M5.97667 11.5232C5.66702 11.8328 5.42139 12.2003 5.25381 12.6048C5.08623 13.0093 4.99998 13.4429 5 13.8807V14.9999H6.11917C6.55701 14.9999 6.99057 14.9137 7.39508 14.7461C7.79958 14.5785 8.16711 14.3329 8.47667 14.0232L17.9167 4.58324C18.2482 4.25172 18.4344 3.80208 18.4344 3.33324C18.4344 2.8644 18.2482 2.41476 17.9167 2.08324C17.5851 1.75172 17.1355 1.56548 16.6667 1.56548C16.1978 1.56548 15.7482 1.75172 15.4167 2.08324L5.97667 11.5232Z" fill="#9096AA"/>
<path d="M20 4.12667C19.8581 4.74484 19.5464 5.3111 19.1 5.76167L9.655 15.2025C9.19172 15.6682 8.64067 16.0374 8.03374 16.2888C7.42682 16.5401 6.77607 16.6685 6.11917 16.6667H5C4.55797 16.6667 4.13405 16.4911 3.82149 16.1785C3.50893 15.8659 3.33333 15.442 3.33333 15V13.8808C3.33151 13.224 3.46006 12.5733 3.71153 11.9665C3.96301 11.3597 4.33241 10.8088 4.79833 10.3458L14.2383 0.905C14.6855 0.457949 15.2486 0.144533 15.8642 0C15.8533 0 15.8442 0 15.8333 0H4.16667C3.062 0.00132321 2.00296 0.440735 1.22185 1.22185C0.440735 2.00296 0.00132321 3.062 0 4.16667L0 15.8333C0.00132321 16.938 0.440735 17.997 1.22185 18.7782C2.00296 19.5593 3.062 19.9987 4.16667 20H13.3333V15.8333C13.3333 15.1703 13.5967 14.5344 14.0656 14.0656C14.5344 13.5967 15.1703 13.3333 15.8333 13.3333H20V4.16667C20 4.15333 20 4.14083 20 4.12667Z" fill="#9096AA"/>
</g>
<defs>
<clipPath id="clip0_15_369">
<rect width="20" height="20" fill="white"/>
</clipPath>
</defs>
</svg>
