<svg width="20" height="20" viewBox="0 0 20 20" fill="none" xmlns="http://www.w3.org/2000/svg">
<g clip-path="url(#clip0_103_140)">
<path d="M15.2976 6.13412C15.1546 6.08991 15.0249 6.01099 14.9199 5.9044C14.8149 5.79781 14.7379 5.66687 14.6959 5.52329C14.2549 4.1063 13.3538 2.87696 12.1352 2.02999C10.9166 1.18301 9.4503 0.766838 7.96848 0.847387C6.48666 0.927935 5.07407 1.5006 3.95449 2.47467C2.8349 3.44874 2.07232 4.76852 1.78756 6.22495C1.4946 7.69719 1.73069 9.22558 2.45422 10.5408C1.61141 10.9759 0.926066 11.6642 0.494418 12.5088C0.0627696 13.3534 -0.0934988 14.312 0.0475562 15.25C0.264765 16.3398 0.848235 17.3226 1.70107 18.035C2.55391 18.7475 3.62479 19.1468 4.73589 19.1666H12.3192C16.5467 19.1666 19.6951 16.6441 19.9767 13.0316C20.1028 11.5202 19.7072 10.0113 18.8558 8.75618C18.0043 7.50109 16.7485 6.57567 15.2976 6.13412V6.13412ZM15.5542 15.6225L14.2326 16.8008C14.0061 17.025 13.7376 17.2022 13.4424 17.3221C13.1472 17.4421 12.8312 17.5026 12.5126 17.5C12.1821 17.5006 11.8547 17.436 11.5493 17.3099C11.2438 17.1838 10.9663 16.9986 10.7326 16.765L9.44589 15.62C9.36414 15.5472 9.29753 15.459 9.24985 15.3605C9.20218 15.262 9.17437 15.155 9.16803 15.0458C9.15521 14.8251 9.23058 14.6084 9.37756 14.4433C9.52453 14.2782 9.73107 14.1782 9.95174 14.1654C10.061 14.1591 10.1704 14.1743 10.2738 14.2103C10.3772 14.2462 10.4725 14.3022 10.5542 14.375L11.6667 15.37V9.16662C11.6667 8.94561 11.7545 8.73365 11.9108 8.57737C12.0671 8.42109 12.279 8.33329 12.5001 8.33329C12.7211 8.33329 12.933 8.42109 13.0893 8.57737C13.2456 8.73365 13.3334 8.94561 13.3334 9.16662V15.3708L14.4459 14.3775C14.611 14.2305 14.8277 14.1551 15.0484 14.1679C15.269 14.1807 15.4756 14.2807 15.6226 14.4458C15.7695 14.6109 15.8449 14.8276 15.8321 15.0483C15.8193 15.2689 15.7193 15.4755 15.5542 15.6225Z" fill="#9096AA"/>
</g>
<defs>
<clipPath id="clip0_103_140">
<rect width="20" height="20" fill="white"/>
</clipPath>
</defs>
</svg>
